<mxfile host="app.diagrams.net" modified="2024-06-10T09:55:16.644Z" agent="Mozilla/5.0 (Macintosh; Intel Mac OS X 10_15_7) AppleWebKit/537.36 (KHTML, like Gecko) Chrome/125.0.0.0 Safari/537.36" etag="PTYW8gDOVSqJiuDk-pIy" version="24.5.2" type="device">
  <diagram name="Page-1" id="BEnJK_F-JH_JuXTAJXPP">
    <mxGraphModel dx="1434" dy="672" grid="1" gridSize="10" guides="1" tooltips="1" connect="1" arrows="1" fold="1" page="1" pageScale="1" pageWidth="827" pageHeight="1169" math="0" shadow="0">
      <root>
        <mxCell id="0" />
        <mxCell id="1" parent="0" />
        <mxCell id="UwVDpF_dLkGAws7qhN6P-7" style="edgeStyle=orthogonalEdgeStyle;rounded=0;orthogonalLoop=1;jettySize=auto;html=1;exitX=0.25;exitY=0;exitDx=0;exitDy=0;entryX=0.25;entryY=1;entryDx=0;entryDy=0;" edge="1" parent="1" source="UwVDpF_dLkGAws7qhN6P-1" target="UwVDpF_dLkGAws7qhN6P-2">
          <mxGeometry relative="1" as="geometry" />
        </mxCell>
        <mxCell id="UwVDpF_dLkGAws7qhN6P-10" value="Image Data" style="edgeLabel;html=1;align=center;verticalAlign=middle;resizable=0;points=[];" vertex="1" connectable="0" parent="UwVDpF_dLkGAws7qhN6P-7">
          <mxGeometry x="-0.2691" y="-1" relative="1" as="geometry">
            <mxPoint as="offset" />
          </mxGeometry>
        </mxCell>
        <mxCell id="UwVDpF_dLkGAws7qhN6P-13" style="edgeStyle=orthogonalEdgeStyle;rounded=0;orthogonalLoop=1;jettySize=auto;html=1;exitX=0.75;exitY=0;exitDx=0;exitDy=0;entryX=0.75;entryY=1;entryDx=0;entryDy=0;" edge="1" parent="1" source="UwVDpF_dLkGAws7qhN6P-1" target="UwVDpF_dLkGAws7qhN6P-2">
          <mxGeometry relative="1" as="geometry" />
        </mxCell>
        <mxCell id="UwVDpF_dLkGAws7qhN6P-14" value="Submission Status" style="edgeLabel;html=1;align=center;verticalAlign=middle;resizable=0;points=[];" vertex="1" connectable="0" parent="UwVDpF_dLkGAws7qhN6P-13">
          <mxGeometry x="-0.4054" y="3" relative="1" as="geometry">
            <mxPoint as="offset" />
          </mxGeometry>
        </mxCell>
        <mxCell id="UwVDpF_dLkGAws7qhN6P-17" style="edgeStyle=orthogonalEdgeStyle;rounded=0;orthogonalLoop=1;jettySize=auto;html=1;" edge="1" parent="1" source="UwVDpF_dLkGAws7qhN6P-1" target="UwVDpF_dLkGAws7qhN6P-15">
          <mxGeometry relative="1" as="geometry" />
        </mxCell>
        <mxCell id="UwVDpF_dLkGAws7qhN6P-19" value="Save Form Data" style="edgeLabel;html=1;align=center;verticalAlign=middle;resizable=0;points=[];" vertex="1" connectable="0" parent="UwVDpF_dLkGAws7qhN6P-17">
          <mxGeometry x="-0.1015" y="1" relative="1" as="geometry">
            <mxPoint as="offset" />
          </mxGeometry>
        </mxCell>
        <mxCell id="UwVDpF_dLkGAws7qhN6P-1" value="Express" style="rounded=0;whiteSpace=wrap;html=1;" vertex="1" parent="1">
          <mxGeometry x="280" y="310" width="281" height="90" as="geometry" />
        </mxCell>
        <mxCell id="UwVDpF_dLkGAws7qhN6P-8" style="edgeStyle=orthogonalEdgeStyle;rounded=0;orthogonalLoop=1;jettySize=auto;html=1;exitX=0;exitY=1;exitDx=0;exitDy=0;entryX=0;entryY=0;entryDx=0;entryDy=0;" edge="1" parent="1" source="UwVDpF_dLkGAws7qhN6P-2" target="UwVDpF_dLkGAws7qhN6P-1">
          <mxGeometry relative="1" as="geometry" />
        </mxCell>
        <mxCell id="UwVDpF_dLkGAws7qhN6P-9" value="Upload Image" style="edgeLabel;html=1;align=center;verticalAlign=middle;resizable=0;points=[];" vertex="1" connectable="0" parent="UwVDpF_dLkGAws7qhN6P-8">
          <mxGeometry x="-0.3556" relative="1" as="geometry">
            <mxPoint y="-9" as="offset" />
          </mxGeometry>
        </mxCell>
        <mxCell id="UwVDpF_dLkGAws7qhN6P-11" style="edgeStyle=orthogonalEdgeStyle;rounded=0;orthogonalLoop=1;jettySize=auto;html=1;exitX=0.5;exitY=1;exitDx=0;exitDy=0;" edge="1" parent="1" source="UwVDpF_dLkGAws7qhN6P-2" target="UwVDpF_dLkGAws7qhN6P-1">
          <mxGeometry relative="1" as="geometry" />
        </mxCell>
        <mxCell id="UwVDpF_dLkGAws7qhN6P-12" value="Submit Form Data&lt;div&gt;with Image Data&lt;/div&gt;" style="edgeLabel;html=1;align=center;verticalAlign=middle;resizable=0;points=[];" vertex="1" connectable="0" parent="UwVDpF_dLkGAws7qhN6P-11">
          <mxGeometry x="-0.558" y="1" relative="1" as="geometry">
            <mxPoint y="10" as="offset" />
          </mxGeometry>
        </mxCell>
        <mxCell id="UwVDpF_dLkGAws7qhN6P-2" value="Client Form" style="rounded=0;whiteSpace=wrap;html=1;" vertex="1" parent="1">
          <mxGeometry x="280" y="160" width="280" height="60" as="geometry" />
        </mxCell>
        <mxCell id="UwVDpF_dLkGAws7qhN6P-15" value="Form Data" style="shape=cylinder3;whiteSpace=wrap;html=1;boundedLbl=1;backgroundOutline=1;size=15;" vertex="1" parent="1">
          <mxGeometry x="385.25" y="490" width="70.5" height="80" as="geometry" />
        </mxCell>
        <mxCell id="UwVDpF_dLkGAws7qhN6P-16" value="Image Data" style="shape=cylinder3;whiteSpace=wrap;html=1;boundedLbl=1;backgroundOutline=1;size=15;" vertex="1" parent="1">
          <mxGeometry x="480" y="490" width="70.5" height="80" as="geometry" />
        </mxCell>
        <mxCell id="UwVDpF_dLkGAws7qhN6P-18" style="edgeStyle=orthogonalEdgeStyle;rounded=0;orthogonalLoop=1;jettySize=auto;html=1;exitX=0.75;exitY=1;exitDx=0;exitDy=0;entryX=0.5;entryY=0;entryDx=0;entryDy=0;entryPerimeter=0;" edge="1" parent="1" source="UwVDpF_dLkGAws7qhN6P-1" target="UwVDpF_dLkGAws7qhN6P-16">
          <mxGeometry relative="1" as="geometry">
            <Array as="points">
              <mxPoint x="491" y="420" />
              <mxPoint x="515" y="420" />
            </Array>
          </mxGeometry>
        </mxCell>
        <mxCell id="UwVDpF_dLkGAws7qhN6P-20" value="Save Image Data&lt;div&gt;with form data id&lt;/div&gt;" style="edgeLabel;html=1;align=center;verticalAlign=middle;resizable=0;points=[];" vertex="1" connectable="0" parent="UwVDpF_dLkGAws7qhN6P-18">
          <mxGeometry x="0.4319" y="2" relative="1" as="geometry">
            <mxPoint as="offset" />
          </mxGeometry>
        </mxCell>
      </root>
    </mxGraphModel>
  </diagram>
</mxfile>
